mtllib materials.mtl
v -0.01426756 0.08885604 0.03351355
v -0.002152473 0.1000091 0.02096155
v 0.07631004 0.02545083 0.03331041
v 0.06419495 0.01429778 0.04586238
v 0.005259335 0.1039448 0.002032876
v 0.08372182 0.02938646 0.01438174
v 0.005981833 0.09960842 -0.01820058
v 0.08444434 0.0250501 -0.005851716
v -0.0001785159 0.08816195 -0.03431726
v 0.078284 0.01360369 -0.02196842
v -0.01157105 0.07267255 -0.04199874
v 0.06689143 -0.001885772 -0.02964988
v -0.02514321 0.05729043 -0.03918675
v 0.05331928 -0.01726782 -0.02683792
v -0.03725833 0.04613739 -0.02663475
v 0.04120418 -0.02842093 -0.01428592
v -0.0446701 0.04220176 -0.007706106
v 0.03379238 -0.03235656 0.004642755
v -0.04539263 0.04653811 0.01252735
v 0.03306988 -0.0280202 0.02487621
v -0.03923225 0.05798453 0.02864406
v 0.03923023 -0.01657379 0.04099289
v -0.02783972 0.07347399 0.03632551
v 0.05062279 -0.001084328 0.04867437
v 0.03496078 -0.02995384 -0.01177323
v 0.06068143 -2.491474E-05 -0.005238414
v -0.01588297 0.07031703 -0.02211976
v -0.04160362 0.04038805 -0.02865461
v 0.0271287 -0.03177854 0.02741003
v -0.02371508 0.06849235 0.01706353
v 0.05284935 -0.001849532 0.03394485
v -0.05106097 0.040236 0.01154241
v 0.0328609 -0.03460595 -0.001029313
v 0.04578075 -0.01957411 0.001639009
v -0.03354251 0.04984599 -0.01582199
v -0.04786229 0.03619766 -0.01953387
v 0.02782437 -0.03370923 0.01830536
v -0.05219764 0.03570408 0.00108254
v -0.03857905 0.05074275 0.00351271
v 0.04074425 -0.01867735 0.02097368
v 0.003577471 0.05278689 -0.04348606
v 0.01926044 0.04912478 -0.04113525
v 0.01861435 0.04998642 -0.03548267
v 0.002931356 0.05364853 -0.03783348
v 0.01466495 0.0343166 -0.03354546
v -0.006726295 -0.04635146 -0.03918648
v 0.005771607 -0.04719266 -0.03395674
v -0.01766801 0.05253482 0.03740832
v -0.001651347 0.05006522 0.0389123
v -0.002195418 0.05002522 0.04464066
v -0.01821202 0.05249488 0.04313669
v -0.00464347 0.03393853 0.04429594
v -0.01836103 -0.04771876 0.02914172
v -0.005692184 -0.04736578 0.03177378
v 0.006424159 -0.04639706 -0.03465658
v -0.007006943 -0.04648077 -0.03908351
v -0.01983637 -0.04668328 0.02890438
v -0.006405234 -0.04659957 0.03333133
v 0.009867638 0.04881203 -0.04477903
v 0.01288152 0.04833013 -0.04429585
v 0.01204228 0.04801333 -0.03937697
v 0.009028405 0.04849517 -0.03986016
v 0.01505914 0.04614985 -0.04406476
v 0.01421994 0.04583305 -0.03914589
v 0.01556876 0.04310393 -0.04417399
v 0.01472956 0.04278713 -0.03925511
v 0.01421568 0.04035586 -0.04458183
v 0.01337647 0.04003906 -0.03966296
v 0.01151675 0.03895527 -0.04513252
v 0.01067755 0.03863847 -0.04021361
v 0.008502871 0.03943712 -0.04561567
v 0.007663637 0.03912032 -0.0406968
v 0.006325215 0.04161739 -0.04584676
v 0.005486012 0.04130059 -0.04092789
v 0.005815625 0.04466331 -0.04573753
v 0.004976422 0.04434651 -0.04081866
v 0.00716868 0.04741138 -0.04532969
v 0.006329477 0.04709458 -0.04041082
v -0.01041019 0.04768711 0.04834935
v -0.01341093 0.04761308 0.04761517
v -0.01221943 0.04744083 0.04276228
v -0.009218633 0.04751486 0.04349646
v -0.01581126 0.0457384 0.04709238
v -0.01461971 0.0455662 0.04223949
v -0.01669425 0.04277921 0.04698059
v -0.01550275 0.04260695 0.0421277
v -0.01572269 0.03986573 0.04732254
v -0.01453114 0.03969347 0.04246965
v -0.01326764 0.03811091 0.04798764
v -0.01207608 0.03793865 0.04313472
v -0.01026684 0.03818494 0.04872179
v -0.009075284 0.03801268 0.0438689
v -0.007866502 0.04005957 0.04924461
v -0.006675005 0.03988731 0.04439169
v -0.006983519 0.04301876 0.04935637
v -0.005791992 0.04284656 0.04450348
v -0.007955134 0.04593223 0.04901442
v -0.006763577 0.04576004 0.04416153
v 0.03885403 -0.04188216 0.004371941
v 0.0340704 -0.04255906 -0.02301675
v 0.03460655 -0.04753014 -0.02298754
v 0.03939018 -0.04685324 0.004401147
v 0.01419246 -0.04481655 -0.04233652
v 0.01472864 -0.04978764 -0.04230732
v -0.01318705 -0.04779235 -0.04620788
v -0.01265091 -0.0527634 -0.04617864
v -0.03761017 -0.05034977 -0.03315207
v -0.03707397 -0.05532086 -0.03312284
v -0.049748 -0.051512 -0.008156002
v -0.04921186 -0.05648309 -0.008126795
v -0.04496437 -0.0508351 0.01923269
v -0.04442823 -0.05580619 0.0192619
v -0.02508646 -0.04857761 0.03855243
v -0.02455026 -0.05354869 0.03858167
v 0.00229311 -0.04560184 0.04242378
v 0.002829254 -0.05057293 0.04245299
v 0.02671617 -0.04304439 0.02936798
v 0.02725235 -0.04801548 0.02939719
v 0.06175274 -0.04370549 0.008372754
v 0.05582085 -0.04517782 -0.03445572
v 0.06010646 -0.06001079 -0.0341782
v 0.06603837 -0.05853847 0.008650273
v 0.0260174 -0.04931939 -0.06554008
v 0.030303 -0.06415236 -0.06526256
v -0.01627368 -0.05454826 -0.07300711
v -0.01198804 -0.06938124 -0.07272959
v -0.05489868 -0.05886716 -0.05400467
v -0.05061305 -0.07370016 -0.05372715
v -0.07510406 -0.06062645 -0.01579109
v -0.07081848 -0.07545945 -0.01551357
v -0.0691722 -0.05915412 0.02703741
v -0.06488657 -0.07398713 0.02731493
v -0.03936875 -0.05501258 0.05812171
v -0.03508312 -0.06984556 0.05839926
v 0.002922356 -0.04978371 0.06558874
v 0.00720796 -0.06461668 0.06586629
v 0.04154733 -0.04546478 0.04658633
v 0.04583293 -0.06029776 0.04686388
vn 0.3538798 0.5030091 0.7885119
vn 0.604299 0.6992123 0.3820013
vn 0.6936933 0.7089553 -0.1271694
vn 0.5971065 0.5284138 -0.6035252
vn 0.339625 0.2053868 -0.9178623
vn -0.008747899 -0.1723478 -0.9849973
vn -0.3538798 -0.5030091 -0.7885119
vn -0.6042988 -0.6992123 -0.3820017
vn -0.6936933 -0.7089553 0.1271698
vn -0.5971065 -0.5284135 0.6035256
vn -0.3396255 -0.2053873 0.917862
vn 0.008748238 0.1723481 0.9849973
vn -0.754402 0.635801 -0.1632018
vn 0.754402 -0.635801 0.1632016
vn 0.229019 0.01569708 -0.9732955
vn -0.2290186 -0.01569702 0.9732955
vn 0.7403995 -0.6618757 0.1171717
vn -0.7403997 0.6618754 -0.1171716
vn -0.6497324 -0.7431295 -0.1600205
vn 0.6475179 0.7441759 0.1640818
vn -0.1984227 0.0005208871 0.9801165
vn -0.6934191 0.7024343 -0.160487
vn 0.2232533 0.004803394 -0.9747486
vn -0.2022735 0.01248081 0.9792495
vn 0.7206091 -0.6581004 0.2182347
vn -0.7062994 0.6743905 -0.2152641
vn -0.6328496 -0.7613701 -0.1407731
vn 0.6365058 0.7601433 0.1305476
vn -0.6678322 0.7341018 -0.1228602
vn 0.2426593 0.9627823 -0.1190243
vn 0.9635919 -0.2250074 0.144438
vn -0.9870636 0.0970539 -0.1276167
vn -0.1122809 0.1497401 0.9823294
vn 0.1267211 -0.09136152 -0.9877221
vn -0.3836163 0.0372 0.922743
vn -0.3171829 0.0178034 0.9481973
vn 0.3802367 -0.07948293 -0.9214676
vn 0.9270838 -0.102971 0.3604338
vn 0.1504129 0.9883964 0.021181
vn 0.9840917 -0.1517382 0.09240714
vn -0.9954225 0.01466846 -0.09443939
vn -0.09454872 -0.006944767 0.9954961
vn 0.1037197 0.06839826 -0.992252
vn -0.1972911 -0.1467429 0.9693002
vn -0.2635647 -0.1330345 0.9554242
vn 0.2006624 0.07912882 -0.9764596
vn 0.9408152 -0.06341242 0.3329349
vn 0.006792042 -0.9999755 -0.001696632
vn -0.006792042 0.9999755 0.001696632
vn 0.1434996 0.9857328 0.08797028
vn 0.6893687 0.7058175 0.1630726
vn 0.9719223 0.1563038 0.1758868
vn 0.8832345 -0.4529129 0.1215182
vn 0.4571813 -0.8891318 0.02073372
vn -0.1434997 -0.9857328 -0.08797032
vn -0.6893687 -0.7058173 -0.1630726
vn -0.9719224 -0.1563035 -0.1758868
vn -0.8832346 0.4529128 -0.1215182
vn -0.4571814 0.8891318 -0.02073374
vn -0.1678421 -0.06336173 0.9837756
vn 0.1678421 0.06336176 -0.9837756
vn -0.01506924 0.9991193 -0.03916113
vn -0.5829737 0.7942222 -0.1713269
vn -0.9282019 0.2859592 -0.2380516
vn -0.9188886 -0.3315307 -0.2138487
vn -0.5585911 -0.8223869 -0.1079629
vn 0.0150694 -0.9991193 0.03916117
vn 0.5829737 -0.7942221 0.1713269
vn 0.928202 -0.2859589 0.2380516
vn 0.9188886 0.3315306 0.2138487
vn 0.5585912 0.8223868 0.1079629
vn 0.2383071 -0.03444805 -0.9705787
vn -0.2383071 0.03444807 0.9705787
vn 0.979243 0.1045963 -0.1736168
vn 0.6911242 0.07031435 -0.7193074
vn 0.1390193 0.009174547 -0.9902472
vn -0.4661861 -0.05546972 -0.882946
vn -0.8933243 -0.09892619 -0.4383895
vn -0.979243 -0.1045963 0.1736168
vn -0.6911242 -0.07031419 0.7193076
vn -0.1390192 -0.009174364 0.9902472
vn 0.4661861 0.05546947 0.8829461
vn 0.8933243 0.0989262 0.4383896
vn 0.1072316 -0.9942169 0.005842932
vn -0.1072316 0.9942169 -0.005842932
vn 0.9517827 0.2723521 -0.1411882
vn 0.696275 0.1882111 -0.69266
vn 0.1701068 0.03072012 -0.9849467
vn -0.4245387 -0.1393974 -0.8946146
vn -0.8500956 -0.2542413 -0.4611929
vn -0.9517832 -0.2723505 0.1411881
vn -0.6962748 -0.1882105 0.6926603
vn -0.1701071 -0.03071869 0.9849467
vn 0.4245383 0.1393995 0.8946145
vn 0.8500952 0.2542435 0.4611925
vn 0.1196333 -0.992663 0.01755543
vn -0.1196331 0.992663 -0.01755541
vt 0.08267976 -0.007196688
vt 0.08333072 -0.005231125
vt 0.07293586 -0.001971536
vt 0.0722849 -0.003937096
vt 0.08290482 -0.0127842
vt 0.08368874 -0.01086778
vt 0.07370812 -0.006501425
vt 0.07292418 -0.008417839
vt 0.06462108 -0.05249789
vt 0.06618546 -0.05114148
vt 0.05953559 -0.04251261
vt 0.05797121 -0.04386904
vt -0.04769452 -0.0663318
vt -0.04609319 -0.0676444
vt -0.03856809 -0.05976718
vt -0.04016941 -0.05845457
vt -0.07458769 -0.03094481
vt -0.07365973 -0.03279578
vt -0.06358799 -0.02864389
vt -0.06451596 -0.02679293
vt -0.08034145 -0.01298438
vt -0.07962963 -0.01492874
vt -0.06921965 -0.01171779
vt -0.06993146 -0.009773439
vt -0.08277439 -0.005046871
vt -0.08212342 -0.007012435
vt -0.07172856 -0.003752845
vt -0.07237954 -0.001787282
vt -0.08316186 -0.01065225
vt -0.08237793 -0.01256866
vt -0.07239731 -0.008202307
vt -0.07318123 -0.006285892
vt -0.06592311 -0.05083903
vt -0.06435872 -0.05219545
vt -0.05770886 -0.04356658
vt -0.05927324 -0.04221017
vt 0.0460149 -0.06754876
vt 0.04761623 -0.06623615
vt 0.04009112 -0.05835893
vt 0.03848979 -0.05967153
vt 0.07382666 -0.03287951
vt 0.07475463 -0.03102854
vt 0.06468289 -0.02687666
vt 0.06375493 -0.02872762
vt 0.08004887 -0.01508221
vt 0.08076069 -0.01313786
vt 0.0703507 -0.009926907
vt 0.06963888 -0.01187126
vt 0.007875582 0.01584362
vt 0.009328205 0.01436813
vt 0.01132396 0.01381663
vt 0.01332808 0.0143369
vt 0.01480357 0.01578952
vt 0.01535507 0.01778527
vt 0.01483481 0.0197894
vt 0.01338218 0.02126488
vt 0.01138643 0.02181638
vt 0.009382307 0.02129612
vt 0.007906818 0.0198435
vt 0.007355317 0.01784774
vt -0.008105308 0.01746023
vt -0.008656808 0.01945598
vt -0.0101323 0.0209086
vt -0.01213642 0.02142887
vt -0.01413218 0.02087737
vt -0.0155848 0.01940188
vt -0.01610506 0.01739776
vt -0.01555356 0.015402
vt -0.01407807 0.01394937
vt -0.01207395 0.01342911
vt -0.0100782 0.01398061
vt -0.008625573 0.0154561
vt -0.06737183 -0.02194713
vt -0.06871425 -0.01817913
vt -0.07865801 -0.02165367
vt -0.07731558 -0.02542168
vt 0.06720176 -0.02188655
vt 0.07848795 -0.02159309
vt 0.06854419 -0.01811854
vt -0.01951059 0.01381862
vt -0.01606989 0.01177863
vt -0.0140299 0.01521933
vt -0.01747061 0.01725932
vt 0.0198868 0.01411627
vt 0.01784681 0.01755698
vt 0.01440611 0.01551698
vt -0.07169083 -0.0174774
vt -0.08081759 -0.02273598
vt -0.07878476 -0.02633042
vt -0.0695395 -0.02084956
vt 0.07173204 -0.01740336
vt 0.06958447 -0.02077796
vt 0.0787171 -0.02602639
vt 0.08086467 -0.02265178
vt 0.06717543 -0.02131783
vt 0.07733096 -0.02483638
vt 0.07846176 -0.02103002
vt 0.01283654 0.009646838
vt 0.01476795 0.006177443
vt 0.01832468 0.0082756
vt -0.06717141 -0.02166975
vt -0.06784473 -0.01978684
vt -0.07785777 -0.02351512
vt -0.07738267 -0.02547066
vt 0.06742223 -0.02102869
vt 0.07747464 -0.02478799
vt 0.07811322 -0.02284706
vt 0.06809084 -0.01914385
vt -0.0119505 0.01001863
vt -0.01022791 0.009002426
vt -0.009211706 0.01072502
vt -0.0109343 0.01174122
vt 0.01141346 0.009722099
vt 0.009687855 0.008711005
vt 0.01068564 0.006927819
vt -0.0698859 -0.02144255
vt -0.07910704 -0.02724671
vt -0.07793341 -0.02899681
vt -0.06890915 -0.02318769
vt 0.06971369 -0.02189806
vt 0.06872607 -0.0236372
vt 0.07769488 -0.02944432
vt 0.0786825 -0.02770518
vt 0.02000465 0.003990223
vt 0.02183572 0.005033256
vt 0.02080788 0.006763762
vt 0.04612526 -0.04979542
vt 0.04541431 -0.04833136
vt 0.04489668 -0.04858272
vt 0.04560764 -0.05004678
vt 0.003681341 0.05095765
vt 0.003459307 0.0492457
vt 0.004194681 0.05069765
vt -0.00528543 0.04950586
vt -0.01116191 0.05756798
vt -0.01165697 0.05727468
vt 0.07895929 -0.01426377
vt 0.0778329 -0.01308896
vt 0.07665809 -0.01421536
vt -0.0688967 -0.02112272
vt -0.07667096 -0.01523492
vt -0.07777789 -0.01642808
vt 0.07789619 -0.0164203
vt 0.07158305 -0.02165236
vt 0.07240652 -0.02273146
vt 0.07651637 -0.01872412
vt 0.07079001 -0.02482136
vt 0.07881743 -0.01877888
vt -0.08092021 -0.01437403
vt -0.0732425 -0.02074454
vt -0.07239351 -0.0196854
vt 0.02941441 0.04363509
vt 0.02272059 0.03654298
vt 0.02883108 0.04201035
vt 0.04751578 -0.04443807
vt 0.04676693 -0.04299302
vt 0.04625602 -0.04325778
vt 0.04700487 -0.04470283
vt 0.01018837 0.05179594
vt 0.009713167 0.05013635
vt 0.01065713 0.0514622
vt -0.01374152 0.04935303
vt -0.02095992 0.0563595
vt -0.02139026 0.05597749
vt 0.07497641 -0.02126713
vt 0.07401861 -0.01995125
vt 0.07270272 -0.02090905
vt -0.06380019 -0.02713619
vt -0.07236731 -0.02242395
vt -0.07329547 -0.02376091
vt 0.06993763 -0.02731908
vt 0.06260399 -0.03104744
vt 0.06310795 -0.03223972
vt 0.071526 -0.02656678
vt 0.06483182 -0.03167025
vt 0.07379222 -0.02696942
vt -0.07447926 -0.02453053
vt -0.06559303 -0.02924551
vt -0.06504501 -0.02807283
vt 0.03586223 0.04003846
vt 0.02797992 0.03425313
vt 0.0349999 0.03854298
vt -0.04786216 -0.03422775
vt -0.04873044 -0.03534403
vt -0.04275813 -0.03883707
vt -0.04188984 -0.03772079
vt 0.04188984 -0.03772079
vt 0.04275813 -0.03883707
vt 0.04873044 -0.03534403
vt 0.04786216 -0.03422775
vt 0.05821564 -0.03519427
vt 0.05804639 -0.03493573
vt 0.05762806 -0.03520958
vt 0.05779731 -0.03546813
vt 0.08068398 -0.01345531
vt 0.08041788 -0.01329821
vt 0.08016369 -0.01372877
vt 0.0804298 -0.01388587
vt 0.03937712 0.05644925
vt 0.03910893 0.05629574
vt 0.0393573 0.05586179
vt 0.0396255 0.0560153
vt -0.01113363 0.03657793
vt -0.01130374 0.03631996
vt -0.01088633 0.0360447
vt -0.01071621 0.03630268
vt -0.03662626 -0.006200442
vt -0.0367713 -0.006473306
vt -0.0363298 -0.006707983
vt -0.03618476 -0.006435118
vt -0.0580464 -0.03493574
vt -0.05821566 -0.03519428
vt -0.05779732 -0.03546814
vt -0.05762807 -0.03520959
vt -0.08041789 -0.0132982
vt -0.08068399 -0.0134553
vt -0.0804298 -0.01388586
vt -0.08016369 -0.01372876
vt -0.03910889 0.05629575
vt -0.03937709 0.05644925
vt -0.03962546 0.05601531
vt -0.03935727 0.0558618
vt 0.01130374 0.03631996
vt 0.01113363 0.03657794
vt 0.01071621 0.03630269
vt 0.01088633 0.03604471
vt 0.0367713 -0.006473303
vt 0.03662626 -0.006200432
vt 0.03618476 -0.006435113
vt 0.03632979 -0.006707978
vt 0.07303114 -0.0230332
vt 0.07285076 -0.02278229
vt 0.07255736 -0.02268532
vt 0.07226299 -0.02277933
vt 0.0720801 -0.02302842
vt 0.07207854 -0.02333743
vt 0.07225892 -0.02358834
vt 0.07255233 -0.02368531
vt 0.0728467 -0.0235913
vt 0.07302959 -0.02334221
vt -0.07302959 -0.02334222
vt -0.0728467 -0.0235913
vt -0.07255232 -0.02368531
vt -0.07225891 -0.02358834
vt -0.07207854 -0.02333743
vt -0.07208009 -0.02302842
vt -0.07226299 -0.02277934
vt -0.07255735 -0.02268532
vt -0.07285076 -0.02278229
vt -0.07303114 -0.0230332
vt 0.03747373 -0.03960679
vt 0.03763884 -0.039868
vt 0.03806149 -0.03960086
vt 0.03789639 -0.03933964
vt 0.01372023 -0.003025883
vt 0.01387055 -0.003295877
vt 0.0143074 -0.003052646
vt 0.01415708 -0.002782659
vt -0.01480335 0.03704621
vt -0.01461711 0.03679963
vt -0.01421812 0.03710098
vt -0.01440437 0.03734757
vt -0.06426353 0.03337288
vt -0.06397151 0.0332718
vt -0.06380795 0.03374429
vt -0.06409997 0.03384537
vt -0.06797002 -0.03868803
vt -0.06772445 -0.03850045
vt -0.06802797 -0.03810311
vt -0.06827354 -0.03829069
vt -0.03763883 -0.03986799
vt -0.03747373 -0.03960677
vt -0.03789638 -0.03933963
vt -0.03806148 -0.03960084
vt -0.01387055 -0.003295864
vt -0.01372022 -0.003025874
vt -0.01415708 -0.002782649
vt -0.0143074 -0.003052636
vt 0.01461712 0.03679965
vt 0.01480336 0.03704623
vt 0.01440438 0.03734758
vt 0.01421813 0.037101
vt 0.0639715 0.03327181
vt 0.06426352 0.03337289
vt 0.06409997 0.03384539
vt 0.06380795 0.0337443
vt 0.06772446 -0.03850044
vt 0.06797003 -0.03868802
vt 0.06827354 -0.03829068
vt 0.06802798 -0.0381031
vt -0.07685985 -0.01853326
vt -0.07700981 -0.01880346
vt -0.07697231 -0.01911019
vt -0.07676167 -0.0193363
vt -0.07645836 -0.01939541
vt -0.07617823 -0.01926496
vt -0.07602827 -0.01899476
vt -0.07606578 -0.01868803
vt -0.07627641 -0.01846192
vt -0.07657973 -0.0184028
vt 0.07657973 -0.01840281
vt 0.07627641 -0.01846192
vt 0.07606578 -0.01868803
vt 0.07602828 -0.01899476
vt 0.07617824 -0.01926496
vt 0.07645836 -0.01939541
vt 0.07676167 -0.01933629
vt 0.07697231 -0.01911019
vt 0.07700981 -0.01880345
vt 0.07685986 -0.01853326
vt -0.01234875 0.0621828
vt -0.01490607 0.06327592
vt -0.0151026 0.06281616
vt -0.01254527 0.06172305
vt -0.07282985 -0.008673498
vt -0.07453042 -0.01087415
vt -0.07413478 -0.01117988
vt -0.07243421 -0.008979232
vt -0.06590556 -0.02424324
vt -0.06693092 -0.02682847
vt -0.06646615 -0.02701281
vt -0.06544078 -0.02442758
vt -0.05730653 -0.00476853
vt -0.05824626 -0.007386112
vt -0.05777567 -0.007555055
vt -0.05683594 -0.004937477
vt -0.04278745 0.0313699
vt -0.04403838 0.02888596
vt -0.04359181 0.02866106
vt -0.04234088 0.03114501
vt 0.01490608 0.06327592
vt 0.01234875 0.0621828
vt 0.01254527 0.06172304
vt 0.0151026 0.06281616
vt 0.07453042 -0.01087415
vt 0.07282986 -0.008673501
vt 0.07243421 -0.008979229
vt 0.07413478 -0.01117988
vt 0.06693093 -0.02682847
vt 0.06590556 -0.02424323
vt 0.06544078 -0.02442757
vt 0.06646615 -0.02701281
vt 0.05824625 -0.007386112
vt 0.05730652 -0.004768533
vt 0.05683593 -0.004937478
vt 0.05777566 -0.007555059
vt 0.04403838 0.02888595
vt 0.04278745 0.0313699
vt 0.04234088 0.03114501
vt 0.04359181 0.02866106
vt -0.04058363 -0.02852673
vt -0.0433327 -0.02810555
vt -0.04580431 -0.02938067
vt -0.0470544 -0.03186505
vt -0.04660545 -0.03460972
vt -0.04462897 -0.03656634
vt -0.0418799 -0.03698752
vt -0.03940828 -0.0357124
vt -0.0381582 -0.03322802
vt -0.03860714 -0.03048334
vt 0.03860714 -0.03048335
vt 0.0381582 -0.03322802
vt 0.03940828 -0.0357124
vt 0.0418799 -0.03698752
vt 0.04462897 -0.03656634
vt 0.04660546 -0.03460973
vt 0.0470544 -0.03186504
vt 0.04580431 -0.02938067
vt 0.0433327 -0.02810555
vt 0.04058362 -0.02852673
vt 0.0161805 0.06416484
vt 0.01308247 0.06718453
vt 0.01203051 0.06605405
vt 0.01512854 0.06303436
vt -0.07025811 -0.01795116
vt -0.07234664 -0.02173988
vt -0.07091921 -0.022329
vt -0.06883068 -0.01854028
vt -0.06490693 -0.02498671
vt -0.06643412 -0.02903443
vt -0.06492124 -0.02934395
vt -0.06339405 -0.02529624
vt -0.06119158 -0.005124613
vt -0.06257588 -0.009223402
vt -0.06105694 -0.009501702
vt -0.05967265 -0.005402911
vt -0.05504925 0.02650189
vt -0.05642773 0.02240115
vt -0.05493134 0.02201979
vt -0.05355285 0.02612054
vt -0.01455952 0.06870027
vt -0.01765756 0.06568059
vt -0.0166056 0.06455011
vt -0.01350756 0.06756979
vt 0.07369567 -0.0209962
vt 0.07160715 -0.01720748
vt 0.07017972 -0.0177966
vt 0.07226825 -0.02158532
vt 0.06677593 -0.02890543
vt 0.06524875 -0.0248577
vt 0.06373587 -0.02516723
vt 0.06526306 -0.02921495
vt 0.06166919 -0.009529639
vt 0.06028489 -0.005430852
vt 0.05876597 -0.005709154
vt 0.06015026 -0.009807942
vt 0.05462838 0.02179618
vt 0.0532499 0.02589692
vt 0.05175351 0.02551557
vt 0.05313199 0.02141483
vt -0.03847568 -0.02606261
vt -0.04273145 -0.02528495
vt -0.04663154 -0.02715729
vt -0.04868625 -0.03096445
vt -0.04811075 -0.03525224
vt -0.04512486 -0.03838286
vt -0.04086909 -0.03916053
vt -0.036969 -0.03728819
vt -0.03491429 -0.03348102
vt -0.03548979 -0.02919323
vt 0.03556908 -0.02942823
vt 0.03499358 -0.03371602
vt 0.03704829 -0.03752319
vt 0.04094838 -0.03939552
vt 0.04520415 -0.03861786
vt 0.04819003 -0.03548724
vt 0.04876554 -0.03119945
vt 0.04671083 -0.02739228
vt 0.04281074 -0.02551995
vt 0.03855497 -0.02629761
o group508357560
g mesh508357560
usemtl mat22
f 4/4/1 3/3/1 2/2/1 1/1/1
f 3/8/2 6/7/2 5/6/2 2/5/2
f 6/12/3 8/11/3 7/10/3 5/9/3
f 8/16/4 10/15/4 9/14/4 7/13/4
f 10/20/5 12/19/5 11/18/5 9/17/5
f 12/24/6 14/23/6 13/22/6 11/21/6
f 14/28/7 16/27/7 15/26/7 13/25/7
f 16/32/8 18/31/8 17/30/8 15/29/8
f 18/36/9 20/35/9 19/34/9 17/33/9
f 20/40/10 22/39/10 21/38/10 19/37/10
f 22/44/11 24/43/11 23/42/11 21/41/11
f 24/48/12 4/47/12 1/46/12 23/45/12
f 24/72/14 22/71/14 20/70/14 18/69/14 16/68/14 14/67/14 12/66/14 10/65/14 8/64/14 6/63/14 3/62/14 4/61/14
usemtl mat21
f 1/60/13 2/59/13 5/58/13 7/57/13 9/56/13 11/55/13 13/54/13 15/53/13 17/52/13 19/51/13 21/50/13 23/49/13
o group764504111
g mesh764504111
usemtl mat23
f 28/76/15 27/75/15 26/74/15 25/73/15
f 31/79/16 30/78/16 29/77/16
f 26/83/17 31/82/17 29/81/17 25/80/17
f 30/86/18 27/85/18 28/84/18
f 29/90/19 32/89/19 28/88/19 25/87/19
f 27/94/20 30/93/20 31/92/20 26/91/20
f 30/97/21 32/96/21 29/95/21
f 28/100/22 32/99/22 30/98/22
o group1981873613
g mesh1981873613
usemtl mat23
f 36/104/23 35/103/23 34/102/23 33/101/23
f 40/108/24 39/107/24 38/106/24 37/105/24
f 34/112/25 40/111/25 37/110/25 33/109/25
f 38/115/26 39/114/26 35/113/26
f 37/119/27 38/118/27 36/117/27 33/116/27
f 35/123/28 39/122/28 40/121/28 34/120/28
f 35/126/29 36/125/29 38/124/29
o group704803567
g mesh704803567
usemtl mat22
f 44/130/30 43/129/30 42/128/30 41/127/30
f 43/133/31 45/132/31 42/131/31
f 44/136/32 41/135/32 46/134/32
f 45/139/33 43/138/33 44/137/33
f 41/142/34 42/141/34 47/140/34
f 46/145/35 47/144/35 45/143/35
f 44/148/36 46/147/36 45/146/36
f 47/151/37 46/150/37 41/149/37
f 45/154/38 47/153/38 42/152/38
o group1508377277
g mesh1508377277
usemtl mat22
f 51/158/39 50/157/39 49/156/39 48/155/39
f 50/161/40 52/160/40 49/159/40
f 51/164/41 48/163/41 53/162/41
f 52/167/42 50/166/42 51/165/42
f 48/170/43 49/169/43 54/168/43
f 53/173/44 54/172/44 52/171/44
f 51/176/45 53/175/45 52/174/45
f 54/179/46 53/178/46 48/177/46
f 52/182/47 54/181/47 49/180/47
o group1644816186
g mesh1644816186
usemtl mat22
f 58/186/48 57/185/48 56/184/48 55/183/48
f 55/190/49 56/189/49 57/188/49 58/187/49
o group205185113
g mesh205185113
usemtl mat22
f 62/194/50 61/193/50 60/192/50 59/191/50
f 61/198/51 64/197/51 63/196/51 60/195/51
f 64/202/52 66/201/52 65/200/52 63/199/52
f 66/206/53 68/205/53 67/204/53 65/203/53
f 68/210/54 70/209/54 69/208/54 67/207/54
f 70/214/55 72/213/55 71/212/55 69/211/55
f 72/218/56 74/217/56 73/216/56 71/215/56
f 74/222/57 76/221/57 75/220/57 73/219/57
f 76/226/58 78/225/58 77/224/58 75/223/58
f 78/230/59 62/229/59 59/228/59 77/227/59
f 78/240/60 76/239/60 74/238/60 72/237/60 70/236/60 68/235/60 66/234/60 64/233/60 61/232/60 62/231/60
f 59/250/61 60/249/61 63/248/61 65/247/61 67/246/61 69/245/61 71/244/61 73/243/61 75/242/61 77/241/61
o group1368240951
g mesh1368240951
usemtl mat22
f 82/254/62 81/253/62 80/252/62 79/251/62
f 81/258/63 84/257/63 83/256/63 80/255/63
f 84/262/64 86/261/64 85/260/64 83/259/64
f 86/266/65 88/265/65 87/264/65 85/263/65
f 88/270/66 90/269/66 89/268/66 87/267/66
f 90/274/67 92/273/67 91/272/67 89/271/67
f 92/278/68 94/277/68 93/276/68 91/275/68
f 94/282/69 96/281/69 95/280/69 93/279/69
f 96/286/70 98/285/70 97/284/70 95/283/70
f 98/290/71 82/289/71 79/288/71 97/287/71
f 98/300/72 96/299/72 94/298/72 92/297/72 90/296/72 88/295/72 86/294/72 84/293/72 81/292/72 82/291/72
f 79/310/73 80/309/73 83/308/73 85/307/73 87/306/73 89/305/73 91/304/73 93/303/73 95/302/73 97/301/73
o group183236212
g mesh183236212
usemtl mat22
f 102/314/74 101/313/74 100/312/74 99/311/74
f 101/318/75 104/317/75 103/316/75 100/315/75
f 104/322/76 106/321/76 105/320/76 103/319/76
f 106/326/77 108/325/77 107/324/77 105/323/77
f 108/330/78 110/329/78 109/328/78 107/327/78
f 110/334/79 112/333/79 111/332/79 109/331/79
f 112/338/80 114/337/80 113/336/80 111/335/80
f 114/342/81 116/341/81 115/340/81 113/339/81
f 116/346/82 118/345/82 117/344/82 115/343/82
f 118/350/83 102/349/83 99/348/83 117/347/83
f 118/360/84 116/359/84 114/358/84 112/357/84 110/356/84 108/355/84 106/354/84 104/353/84 101/352/84 102/351/84
f 99/370/85 100/369/85 103/368/85 105/367/85 107/366/85 109/365/85 111/364/85 113/363/85 115/362/85 117/361/85
o group1026584984
g mesh1026584984
usemtl mat22
f 122/374/86 121/373/86 120/372/86 119/371/86
f 121/378/87 124/377/87 123/376/87 120/375/87
f 124/382/88 126/381/88 125/380/88 123/379/88
f 126/386/89 128/385/89 127/384/89 125/383/89
f 128/390/90 130/389/90 129/388/90 127/387/90
f 130/394/91 132/393/91 131/392/91 129/391/91
f 132/398/92 134/397/92 133/396/92 131/395/92
f 134/402/93 136/401/93 135/400/93 133/399/93
f 136/406/94 138/405/94 137/404/94 135/403/94
f 138/410/95 122/409/95 119/408/95 137/407/95
f 138/420/96 136/419/96 134/418/96 132/417/96 130/416/96 128/415/96 126/414/96 124/413/96 121/412/96 122/411/96
f 119/430/97 120/429/97 123/428/97 125/427/97 127/426/97 129/425/97 131/424/97 133/423/97 135/422/97 137/421/97
